<svg xmlns="http://www.w3.org/2000/svg" viewBox="0 0 1000 460" width="1000" height="460" fill="none" stroke-linecap="round" stroke-linejoin="round">
<line x1="70" y1="400" x2="930" y2="400" stroke="#4fe0cf" stroke-width="1" opacity="0.15"/>
<path d="M 70.0 60.0 L 72.2 70.3 L 74.3 80.4 L 76.5 90.3 L 78.6 100.0 L 80.8 109.5 L 82.9 118.8 L 85.1 127.9 L 87.2 136.8 L 89.4 145.5 L 91.6 154.0 L 93.7 162.4 L 95.9 170.5 L 98.0 178.5 L 100.2 186.2 L 102.3 193.8 L 104.5 201.2 L 106.6 208.5 L 108.8 215.6 L 111.0 222.5 L 113.1 229.2 L 115.3 235.8 L 117.4 242.2 L 119.6 248.4 L 121.7 254.5 L 123.9 260.4 L 126.0 266.2 L 128.2 271.8 L 130.4 277.2 L 132.5 282.5 L 134.7 287.7 L 136.8 292.7 L 139.0 297.6 L 141.1 302.3 L 143.3 306.9 L 145.4 311.4 L 147.6 315.7 L 149.7 319.9 L 151.9 323.9 L 154.1 327.9 L 156.2 331.7 L 158.4 335.3 L 160.5 338.9 L 162.7 342.3 L 164.8 345.6 L 167.0 348.8 L 169.1 351.9 L 171.3 354.9 L 173.5 357.7 L 175.6 360.4 L 177.8 363.1 L 179.9 365.6 L 182.1 368.0 L 184.2 370.3 L 186.4 372.5 L 188.5 374.6 L 190.7 376.7 L 192.9 378.6 L 195.0 380.4 L 197.2 382.1 L 199.3 383.8 L 201.5 385.3 L 203.6 386.8 L 205.8 388.1 L 207.9 389.4 L 210.1 390.6 L 212.3 391.8 L 214.4 392.8 L 216.6 393.8 L 218.7 394.7 L 220.9 395.5 L 223.0 396.2 L 225.2 396.9 L 227.3 397.5 L 229.5 398.0 L 231.7 398.5 L 233.8 398.9 L 236.0 399.2 L 238.1 399.5 L 240.3 399.7 L 242.4 399.9 L 244.6 400.0 L 246.7 400.0 L 248.9 400.0 L 251.1 399.9 L 253.2 399.8 L 255.4 399.6 L 257.5 399.4 L 259.7 399.1 L 261.8 398.8 L 264.0 398.4 L 266.1 398.0 L 268.3 397.5 L 270.5 397.0 L 272.6 396.5 L 274.8 395.9 L 276.9 395.3 L 279.1 394.6 L 281.2 394.0 L 283.4 393.2 L 285.5 392.5 L 287.7 391.7 L 289.8 390.9 L 292.0 390.0 L 294.2 389.1 L 296.3 388.2 L 298.5 387.3 L 300.6 386.3 L 302.8 385.4 L 304.9 384.4 L 307.1 383.3 L 309.2 382.3 L 311.4 381.2 L 313.6 380.1 L 315.7 379.0 L 317.9 377.9 L 320.0 376.8 L 322.2 375.7 L 324.3 374.5 L 326.5 373.3 L 328.6 372.1 L 330.8 370.9 L 333.0 369.7 L 335.1 368.5 L 337.3 367.3 L 339.4 366.1 L 341.6 364.8 L 343.7 363.6 L 345.9 362.4 L 348.0 361.1 L 350.2 359.9 L 352.4 358.6 L 354.5 357.4 L 356.7 356.1 L 358.8 354.9 L 361.0 353.6 L 363.1 352.4 L 365.3 351.2 L 367.4 349.9 L 369.6 348.7 L 371.8 347.5 L 373.9 346.2 L 376.1 345.0 L 378.2 343.8 L 380.4 342.6 L 382.5 341.4 L 384.7 340.3 L 386.8 339.1 L 389.0 337.9 L 391.2 336.8 L 393.3 335.7 L 395.5 334.6 L 397.6 333.5 L 399.8 332.4 L 401.9 331.3 L 404.1 330.2 L 406.2 329.2 L 408.4 328.1 L 410.6 327.1 L 412.7 326.1 L 414.9 325.2 L 417.0 324.2 L 419.2 323.3 L 421.3 322.3 L 423.5 321.4 L 425.6 320.6 L 427.8 319.7 L 429.9 318.9 L 432.1 318.0 L 434.3 317.2 L 436.4 316.5 L 438.6 315.7 L 440.7 315.0 L 442.9 314.3 L 445.0 313.6 L 447.2 312.9 L 449.3 312.3 L 451.5 311.7 L 453.7 311.1 L 455.8 310.5 L 458.0 310.0 L 460.1 309.5 L 462.3 309.0 L 464.4 308.5 L 466.6 308.1 L 468.7 307.7 L 470.9 307.3 L 473.1 307.0 L 475.2 306.6 L 477.4 306.3 L 479.5 306.1 L 481.7 305.8 L 483.8 305.6 L 486.0 305.4 L 488.1 305.2 L 490.3 305.1 L 492.5 305.0 L 494.6 304.9 L 496.8 304.8 L 498.9 304.8 L 501.1 304.8 L 503.2 304.8 L 505.4 304.9 L 507.5 305.0 L 509.7 305.1 L 511.9 305.2 L 514.0 305.4 L 516.2 305.6 L 518.3 305.8 L 520.5 306.1 L 522.6 306.3 L 524.8 306.6 L 526.9 307.0 L 529.1 307.3 L 531.3 307.7 L 533.4 308.1 L 535.6 308.5 L 537.7 309.0 L 539.9 309.5 L 542.0 310.0 L 544.2 310.5 L 546.3 311.1 L 548.5 311.7 L 550.7 312.3 L 552.8 312.9 L 555.0 313.6 L 557.1 314.3 L 559.3 315.0 L 561.4 315.7 L 563.6 316.5 L 565.7 317.2 L 567.9 318.0 L 570.1 318.9 L 572.2 319.7 L 574.4 320.6 L 576.5 321.4 L 578.7 322.3 L 580.8 323.3 L 583.0 324.2 L 585.1 325.2 L 587.3 326.1 L 589.4 327.1 L 591.6 328.1 L 593.8 329.2 L 595.9 330.2 L 598.1 331.3 L 600.2 332.4 L 602.4 333.5 L 604.5 334.6 L 606.7 335.7 L 608.8 336.8 L 611.0 337.9 L 613.2 339.1 L 615.3 340.3 L 617.5 341.4 L 619.6 342.6 L 621.8 343.8 L 623.9 345.0 L 626.1 346.2 L 628.2 347.5 L 630.4 348.7 L 632.6 349.9 L 634.7 351.2 L 636.9 352.4 L 639.0 353.6 L 641.2 354.9 L 643.3 356.1 L 645.5 357.4 L 647.6 358.6 L 649.8 359.9 L 652.0 361.1 L 654.1 362.4 L 656.3 363.6 L 658.4 364.8 L 660.6 366.1 L 662.7 367.3 L 664.9 368.5 L 667.0 369.7 L 669.2 370.9 L 671.4 372.1 L 673.5 373.3 L 675.7 374.5 L 677.8 375.7 L 680.0 376.8 L 682.1 377.9 L 684.3 379.0 L 686.4 380.1 L 688.6 381.2 L 690.8 382.3 L 692.9 383.3 L 695.1 384.4 L 697.2 385.4 L 699.4 386.3 L 701.5 387.3 L 703.7 388.2 L 705.8 389.1 L 708.0 390.0 L 710.2 390.9 L 712.3 391.7 L 714.5 392.5 L 716.6 393.2 L 718.8 394.0 L 720.9 394.6 L 723.1 395.3 L 725.2 395.9 L 727.4 396.5 L 729.5 397.0 L 731.7 397.5 L 733.9 398.0 L 736.0 398.4 L 738.2 398.8 L 740.3 399.1 L 742.5 399.4 L 744.6 399.6 L 746.8 399.8 L 748.9 399.9 L 751.1 400.0 L 753.3 400.0 L 755.4 400.0 L 757.6 399.9 L 759.7 399.7 L 761.9 399.5 L 764.0 399.2 L 766.2 398.9 L 768.3 398.5 L 770.5 398.0 L 772.7 397.5 L 774.8 396.9 L 777.0 396.2 L 779.1 395.5 L 781.3 394.7 L 783.4 393.8 L 785.6 392.8 L 787.7 391.8 L 789.9 390.6 L 792.1 389.4 L 794.2 388.1 L 796.4 386.8 L 798.5 385.3 L 800.7 383.8 L 802.8 382.1 L 805.0 380.4 L 807.1 378.6 L 809.3 376.7 L 811.5 374.6 L 813.6 372.5 L 815.8 370.3 L 817.9 368.0 L 820.1 365.6 L 822.2 363.1 L 824.4 360.4 L 826.5 357.7 L 828.7 354.9 L 830.9 351.9 L 833.0 348.8 L 835.2 345.6 L 837.3 342.3 L 839.5 338.9 L 841.6 335.3 L 843.8 331.7 L 845.9 327.9 L 848.1 323.9 L 850.3 319.9 L 852.4 315.7 L 854.6 311.4 L 856.7 306.9 L 858.9 302.3 L 861.0 297.6 L 863.2 292.7 L 865.3 287.7 L 867.5 282.5 L 869.6 277.2 L 871.8 271.8 L 874.0 266.2 L 876.1 260.4 L 878.3 254.5 L 880.4 248.4 L 882.6 242.2 L 884.7 235.8 L 886.9 229.2 L 889.0 222.5 L 891.2 215.6 L 893.4 208.5 L 895.5 201.2 L 897.7 193.8 L 899.8 186.2 L 902.0 178.5 L 904.1 170.5 L 906.3 162.4 L 908.4 154.0 L 910.6 145.5 L 912.8 136.8 L 914.9 127.9 L 917.1 118.8 L 919.2 109.5 L 921.4 100.0 L 923.5 90.3 L 925.7 80.4 L 927.8 70.3 L 930.0 60.0" stroke="#4fe0cf" stroke-width="3" opacity="0.9"/>
<circle cx="247.1" cy="400.0" r="22" fill="#4fe0cf" opacity="0.16"/>
<circle cx="247.1" cy="400.0" r="8" fill="#4fe0cf"/>
<circle cx="752.9" cy="400.0" r="22" fill="#4fe0cf" opacity="0.16"/>
<circle cx="752.9" cy="400.0" r="8" fill="#4fe0cf"/>
<circle cx="500.0" cy="304.8" r="7" stroke="#4fe0cf" stroke-width="2.4" opacity="0.85"/>
</svg>